<svg viewBox="0 0 10 12" xmlns="http://www.w3.org/2000/svg">
    <path d="m8.943 3.3333h-7.8859c-0.23864
    0-0.4321 0.18097-0.4321 0.40426v6.3156c0
    1.0735 0.93341 1.9468 2.0806 1.9468h4.5887c1.1473
    0 2.0807-0.8733
    2.0807-1.9468v-6.3156c0-0.22323-0.19335-0.40426-0.43198-0.40426zm-4.9817 6.2318c0
    0.27427-0.23761 0.49661-0.53086 0.49661-0.29306
    0-0.53085-0.22234-0.53085-0.49661v-3.7968c0-0.27433
    0.23773-0.49666 0.53085-0.49666 0.29319 0 0.53086
    0.22239 0.53086 0.49666v3.7968zm3.1391 0c0
    0.27427-0.23767 0.49661-0.53085 0.49661-0.29307
    0-0.53086-0.22234-0.53086-0.49661v-3.7968c0-0.27433
    0.23773-0.49666 0.53086-0.49666 0.29318 0 0.53085
    0.22239 0.53085 0.49666v3.7968z"
          fill="#647A8C"/>
    <path d="m8.6433
    0.58036h-1.9536v-0.14092c0-0.24231-0.237-0.43945-0.52831-0.43945h-2.3227c-0.29131
    0-0.52838 0.19713-0.52838 0.43945v0.14092h-1.9536c-0.74807 0-1.3567
    0.50619-1.3567 1.1284v0.72358c0 0.1294 0.12612 0.23434 0.28178
    0.23434h9.4365c0.15557 0
    0.28169-0.10494
    0.28169-0.23434v-0.72358c0-0.62219-0.60856-1.1284-1.3567-1.1284z"
          fill="#647A8C"/>
</svg>
