<?xml version="1.0" encoding="UTF-8"?>
<svg width="10px" height="10px" fill="none" viewBox="0 0 11 10" xmlns="http://www.w3.org/2000/svg">
    <path d="m6.4425
    5.0081
    3.8938-3.8939c0.2534-0.25328
    0.2534-0.66281
    0-0.91609-0.2532-0.25328-0.66276-0.25328-0.91605
    0l-3.8939 3.8939-3.8938-3.8939c-0.2534-0.25328-0.66281-0.25328-0.91609
    0-0.2534 0.25328-0.2534 0.66281 0 0.91609l3.8938 3.8939-3.8938
    3.8939c-0.2534  0.25328-0.2534 0.66281 0 0.91609 0.12623 0.12634 0.2922
     0.18986  0.45805 0.18986s0.3317-0.06352 0.45804-0.18986l3.8938-3.8939
    3.8939 3.8939c0.12635 0.12634 0.2922 0.18986 0.45805 0.18986
    0.1658 0 0.3317-0.06352 0.458-0.18986 0.2534-0.25328 0.2534-0.66281
    0-0.91609l-3.8938-3.8939z"
          fill="#2B2839"/>
</svg>
